<?xml version="1.0" encoding="UTF-8"?><svg xmlns="http://www.w3.org/2000/svg" viewBox="0 0 72.25 81.29"><defs><style>.d{fill:#a4a8c2;}</style></defs><g id="a"/><g id="b"><g id="c"><g><path class="d" d="M22.58,0h0c2.49,0,4.52,2.02,4.52,4.52v31.61c0,4.99,4.04,9.03,9.03,9.03h0v9.03h0c-9.98,0-18.06-8.09-18.06-18.06V4.52c0-2.49,2.02-4.52,4.52-4.52Z"/><path class="d" d="M4.52,0h0c2.49,0,4.52,2.02,4.52,4.52v31.61c0,14.96,12.13,27.1,27.1,27.1h0v9.03h0c-19.94,0-36.11-16.16-36.11-36.1V4.52C0,2.02,2.02,0,4.52,0Z"/><path class="d" d="M49.68,81.29h0c-2.49,0-4.52-2.02-4.52-4.52v-31.61c0-4.99-4.04-9.03-9.03-9.03h0v-9.03h0c9.98,0,18.06,8.09,18.06,18.06v31.61c0,2.49-2.02,4.52-4.52,4.52Z"/><path class="d" d="M67.74,81.29h0c-2.49,0-4.52-2.02-4.52-4.52v-31.61c0-14.96-12.13-27.1-27.1-27.1h0V9.03h0c19.94,0,36.11,16.16,36.11,36.1v31.64c.01,2.49-2.01,4.52-4.5,4.52Z"/></g></g></g></svg>