<?xml version="1.0" encoding="UTF-8"?><svg xmlns="http://www.w3.org/2000/svg" viewBox="0 0 321.12 73.17"><defs><style>.d{fill:#fff;}</style></defs><g id="a"/><g id="b"><g id="c"><g><g><path class="d" d="M20.32,0h0c2.24,0,4.06,1.82,4.06,4.06v28.46c0,4.49,3.64,8.13,8.13,8.13h0v8.13h0c-8.98,0-16.26-7.28-16.26-16.26V4.06c0-2.24,1.82-4.06,4.06-4.06Z"/><path class="d" d="M4.06,0h0c2.24,0,4.06,1.82,4.06,4.06v28.46c0,13.47,10.92,24.39,24.39,24.39h0v8.13h0c-17.95,0-32.5-14.55-32.51-32.49V4.07C0,1.82,1.82,0,4.06,0Z"/><path class="d" d="M44.71,73.17h0c-2.24,0-4.06-1.82-4.06-4.06v-28.46c0-4.49-3.64-8.13-8.13-8.13h0v-8.13h0c8.98,0,16.26,7.28,16.26,16.26v28.46c0,2.24-1.82,4.06-4.06,4.06Z"/><path class="d" d="M60.97,73.17h0c-2.24,0-4.06-1.82-4.06-4.06v-28.46c0-13.47-10.92-24.39-24.39-24.39h0V8.13h0c17.95,0,32.5,14.55,32.51,32.49v28.48c.01,2.25-1.81,4.07-4.05,4.07Z"/></g><g><path class="d" d="M91,60.96h-9.7V12.3h9.7v19.83c1.62-2.88,5.41-4.71,9.63-4.71s8.09,1.62,11.18,4.78c3.16,3.16,4.71,7.31,4.71,12.45s-1.55,9.14-4.71,12.31c-3.09,3.16-6.82,4.71-11.18,4.71s-8.02-1.76-9.63-4.78v4.08Zm7.81-8.58c4.22,0,7.59-3.16,7.59-7.95s-3.38-7.81-7.59-7.81-7.59,3.02-7.59,7.81,3.38,7.95,7.59,7.95Z"/><path class="d" d="M142.89,28.12h9.77V60.96h-9.77v-4.5c-1.69,3.16-5.2,5.2-8.51,5.2-7.66,0-13.01-4.92-13.01-13.92V28.12h9.77v17.51c0,4.71,2.95,6.54,5.84,6.54,3.38,0,5.91-2.11,5.91-6.68V28.12Z"/><path class="d" d="M190,34.38l-7.95,5.7c-1.41-2.18-3.52-3.31-6.33-3.31-2.18,0-4.08,.7-5.7,2.18-1.62,1.41-2.46,3.23-2.46,5.48s.84,4.22,2.46,5.7c1.62,1.48,3.52,2.18,5.7,2.18,2.81,0,4.92-1.13,6.33-3.31l7.95,5.63c-3.09,4.43-8.37,7.03-14.27,7.03-4.85,0-9.07-1.62-12.59-4.85-3.52-3.23-5.27-7.38-5.27-12.38s1.76-9.07,5.27-12.24c3.52-3.16,7.74-4.78,12.59-4.78,5.84,0,11.11,2.53,14.27,6.96Z"/><path class="d" d="M194.92,12.3h9.77V60.96h-9.77V12.3Z"/><path class="d" d="M227.26,61.52c-4.78,0-8.79-1.55-12.09-4.71-3.31-3.16-4.92-7.31-4.92-12.38s1.62-9.14,4.92-12.31c3.3-3.16,7.31-4.71,12.09-4.71s8.79,1.55,12.09,4.71c3.3,3.16,4.99,7.24,4.99,12.31s-1.69,9.21-4.99,12.38c-3.3,3.16-7.31,4.71-12.09,4.71Zm7.45-17.09c0-4.29-3.3-7.45-7.45-7.45s-7.38,3.16-7.38,7.45c0,4.5,3.23,7.52,7.38,7.52s7.45-3.02,7.45-7.52Z"/><path class="d" d="M266.14,61.52c-4.78,0-8.79-1.55-12.09-4.71-3.31-3.16-4.92-7.31-4.92-12.38s1.62-9.14,4.92-12.31c3.3-3.16,7.31-4.71,12.09-4.71s8.79,1.55,12.09,4.71c3.3,3.16,4.99,7.24,4.99,12.31s-1.69,9.21-4.99,12.38c-3.3,3.16-7.31,4.71-12.09,4.71Zm7.45-17.09c0-4.29-3.3-7.45-7.45-7.45s-7.38,3.16-7.38,7.45c0,4.5,3.23,7.52,7.38,7.52s7.45-3.02,7.45-7.52Z"/><path class="d" d="M298.13,47.95v13.01h-9.7V12.3h9.7v24.83l7.81-9h12.45l-13.64,14.49,16.38,18.35h-12.02l-10.97-13.01Z"/></g></g></g></g></svg>