<?xml version="1.0" encoding="UTF-8"?><svg xmlns="http://www.w3.org/2000/svg" viewBox="0 0 153.5 197.42"><defs><style>.d{fill:#f8f8f9;}.e{fill:#e3c136;}.f{fill:#0d023e;}</style></defs><g id="a"/><g id="b"><g id="c"><rect class="d" width="153.5" height="197.42"/><rect class="e" x="6.22" y="5.37" width="141.07" height="103"/><g><path class="f" d="M33.09,164.31h2.64l-.6,2.12h-2.64l-1.2,3.86h2.64l-.62,2.12h-2.62l-1.22,3.75h-2.51l1.17-3.75h-2.35l-1.2,3.75h-2.48l1.2-3.75h-2.62l.6-2.12h2.6l1.17-3.86h-2.58l.6-2.12h2.6l1.2-4h2.55l-1.2,4h2.32l1.22-4h2.53l-1.22,4Zm-5.5,2.12l-1.17,3.86h2.32l1.2-3.86h-2.35Z"/><path class="f" d="M38.38,176.15v-15.84h10.03v2.97h-6.67v3.61h5.84v2.92h-5.84v3.38h6.88v2.97h-10.23Z"/><path class="f" d="M50.76,161.09h11.36l-6.65,15.06h-3.66l5.31-12.1h-6.37v-2.97Z"/><path class="f" d="M77.99,172.91c-1.4,2.14-3.84,3.47-6.67,3.47-2.25,0-4.14-.78-5.68-2.37-1.52-1.59-2.28-3.5-2.28-5.75s.76-4.18,2.28-5.77c1.54-1.59,3.43-2.37,5.68-2.37,2.76,0,5.2,1.31,6.6,3.36l-2.74,1.89c-.94-1.38-2.23-2.07-3.86-2.07-1.31,0-2.39,.48-3.26,1.45-.87,.94-1.31,2.12-1.31,3.52s.44,2.55,1.31,3.52c.87,.94,1.95,1.43,3.26,1.43,1.63,0,3.06-.87,3.96-2.18l2.71,1.89Z"/><path class="f" d="M85.03,168.38c-1.17,0-2.55,.46-3.31,1.66l-1.77-.92,1.24-8.03h8.83v2.94h-6.28l-.39,2.44c.57-.53,1.49-.78,2.76-.78,1.4,0,2.58,.46,3.52,1.36,.94,.9,1.4,2.16,1.4,3.79s-.57,2.97-1.7,4c-1.13,1.03-2.64,1.54-4.51,1.54-2.09,0-4.16-1.22-5.33-3.04l2.71-1.75c.58,.92,1.68,1.56,2.62,1.56,1.72,0,2.99-1.06,2.99-2.32,0-1.63-1.13-2.46-2.78-2.46Z"/><path class="f" d="M96.46,169.62v-2.76h1.59c.99,0,1.47-.55,1.47-1.63,0-.62-.51-1.45-1.52-1.45-.71,0-1.24,.28-1.59,.83l-2.6-1.59c.92-1.45,2.69-2.35,4.69-2.23,1.29,.07,2.37,.51,3.22,1.36,.85,.83,1.26,1.79,1.24,2.87,0,1.2-.76,2.3-1.93,2.94,.8,.3,1.47,.85,1.95,1.66,.48,.8,.69,1.61,.62,2.44-.12,1.29-.76,2.34-1.93,3.2-1.17,.83-2.51,1.2-4,1.08-2.09-.11-3.98-1.4-4.81-3.15l2.83-1.4c.16,.34,.48,.69,.92,.99s.87,.44,1.31,.46c1.1,.07,2.07-.78,2.16-1.61,.05-.3,.21-2.07-2.05-2h-1.59Z"/><path class="f" d="M115.71,167.78c.94,.9,1.43,2.14,1.43,3.75,0,1.45-.51,2.62-1.52,3.52-.99,.9-2.32,1.33-3.96,1.33-1.45,0-2.67-.48-3.68-1.42-1.01-.97-1.59-2.23-1.72-3.82-.37-4.65,.44-10.55,6.09-10.35,2.05,.09,3.63,.8,4.64,2.92l-3.01,1.29c-.39-.8-.97-1.2-1.75-1.2-2.14,.05-2.92,2.28-2.76,4.35,.12-.37,.46-.74,.99-1.13,.53-.39,1.22-.58,2.05-.58,1.2,0,2.25,.44,3.2,1.33Zm-2.51,2.18c-.76-.8-1.98-.8-2.78,0-.76,.76-.76,1.98,0,2.78,.8,.76,2.02,.76,2.78,0,.8-.8,.8-2.02,0-2.78Z"/></g></g></g></svg>