<?xml version="1.0" encoding="UTF-8"?><svg xmlns="http://www.w3.org/2000/svg" viewBox="0 0 202.66 46.18"><defs><style>.d{fill:#fff;}.e{fill:#6155ff;}</style></defs><g id="a"/><g id="b"><g id="c"><g><g><path class="e" d="M12.82,0h0c1.42,0,2.56,1.15,2.56,2.56V20.52c0,2.83,2.3,5.13,5.13,5.13h0v5.13h0c-5.67,0-10.26-4.59-10.26-10.26V2.56c0-1.42,1.15-2.56,2.56-2.56Z"/><path class="e" d="M2.56,0h0c1.42,0,2.56,1.15,2.56,2.56V20.52c0,8.5,6.89,15.39,15.39,15.39h0v5.13h0c-11.33,0-20.51-9.18-20.51-20.51V2.57C0,1.15,1.15,0,2.56,0Z"/><path class="e" d="M28.22,46.18h0c-1.42,0-2.56-1.15-2.56-2.56V25.65c0-2.83-2.3-5.13-5.13-5.13h0v-5.13h0c5.67,0,10.26,4.59,10.26,10.26v17.96c0,1.42-1.15,2.56-2.56,2.56Z"/><path class="e" d="M38.48,46.18h0c-1.42,0-2.56-1.15-2.56-2.56V25.65c0-8.5-6.89-15.39-15.39-15.39h0V5.13h0c11.33,0,20.51,9.18,20.51,20.51v17.97c0,1.42-1.14,2.57-2.56,2.57Z"/></g><g><path class="d" d="M57.43,38.47h-6.12V7.76h6.12v12.52c1.02-1.82,3.42-2.97,6.08-2.97s5.1,1.02,7.06,3.02c2,2,2.97,4.62,2.97,7.85s-.98,5.77-2.97,7.77c-1.95,2-4.3,2.97-7.06,2.97s-5.06-1.11-6.08-3.02v2.57Zm4.93-5.41c2.66,0,4.79-2,4.79-5.01s-2.13-4.93-4.79-4.93-4.79,1.91-4.79,4.93,2.13,5.01,4.79,5.01Z"/><path class="d" d="M90.18,17.75h6.17v20.72h-6.17v-2.84c-1.07,2-3.28,3.28-5.37,3.28-4.84,0-8.21-3.11-8.21-8.79v-12.38h6.17v11.05c0,2.97,1.86,4.13,3.68,4.13,2.13,0,3.73-1.33,3.73-4.22v-10.96Z"/><path class="d" d="M119.91,21.7l-5.01,3.59c-.89-1.38-2.22-2.09-3.99-2.09-1.38,0-2.57,.44-3.59,1.38-1.02,.89-1.55,2.04-1.55,3.46s.53,2.66,1.55,3.59c1.02,.93,2.22,1.38,3.59,1.38,1.78,0,3.11-.71,3.99-2.09l5.01,3.55c-1.95,2.8-5.28,4.44-9.01,4.44-3.06,0-5.72-1.02-7.94-3.06-2.22-2.04-3.33-4.66-3.33-7.81s1.11-5.72,3.33-7.72c2.22-2,4.88-3.02,7.94-3.02,3.68,0,7.01,1.6,9.01,4.39Z"/><path class="d" d="M123.01,7.76h6.17v30.71h-6.17V7.76Z"/><path class="d" d="M143.42,38.83c-3.02,0-5.55-.98-7.63-2.97-2.09-2-3.11-4.62-3.11-7.81s1.02-5.77,3.11-7.77c2.09-2,4.62-2.97,7.63-2.97s5.55,.98,7.63,2.97c2.09,2,3.15,4.57,3.15,7.77s-1.07,5.81-3.15,7.81c-2.09,2-4.62,2.97-7.63,2.97Zm4.7-10.78c0-2.71-2.09-4.7-4.7-4.7s-4.66,2-4.66,4.7c0,2.84,2.04,4.75,4.66,4.75s4.7-1.91,4.7-4.75Z"/><path class="d" d="M167.96,38.83c-3.02,0-5.55-.98-7.63-2.97-2.09-2-3.11-4.62-3.11-7.81s1.02-5.77,3.11-7.77c2.09-2,4.62-2.97,7.63-2.97s5.55,.98,7.63,2.97c2.09,2,3.15,4.57,3.15,7.77s-1.07,5.81-3.15,7.81c-2.09,2-4.62,2.97-7.63,2.97Zm4.7-10.78c0-2.71-2.09-4.7-4.7-4.7s-4.66,2-4.66,4.7c0,2.84,2.04,4.75,4.66,4.75s4.7-1.91,4.7-4.75Z"/><path class="d" d="M188.14,30.26v8.21h-6.12V7.76h6.12v15.67l4.93-5.68h7.85l-8.61,9.14,10.34,11.58h-7.59l-6.92-8.21Z"/></g></g></g></g></svg>