<?xml version="1.0" encoding="UTF-8"?><svg xmlns="http://www.w3.org/2000/svg" viewBox="0 0 317.43 72.33"><defs><style>.d{fill:#12093f;}.e{fill:#6155ff;}</style></defs><g id="a"/><g id="b"><g id="c"><g><g><path class="e" d="M20.09,0h0c2.22,0,4.02,1.8,4.02,4.02v28.13c0,4.44,3.6,8.04,8.04,8.04h0v8.04h0c-8.88,0-16.07-7.2-16.07-16.07V4.02c0-2.22,1.8-4.02,4.02-4.02Z"/><path class="e" d="M4.02,0h0c2.22,0,4.02,1.8,4.02,4.02v28.13c0,13.31,10.79,24.11,24.11,24.11h0v8.04h0c-17.74,0-32.13-14.38-32.13-32.12V4.02C0,1.8,1.8,0,4.02,0Z"/><path class="e" d="M44.2,72.33h0c-2.22,0-4.02-1.8-4.02-4.02v-28.13c0-4.44-3.6-8.04-8.04-8.04h0v-8.04h0c8.88,0,16.07,7.2,16.07,16.07v28.13c0,2.22-1.8,4.02-4.02,4.02Z"/><path class="e" d="M60.27,72.33h0c-2.22,0-4.02-1.8-4.02-4.02v-28.13c0-13.31-10.79-24.11-24.11-24.11h0V8.04h0c17.74,0,32.13,14.38,32.13,32.12v28.15c.01,2.22-1.79,4.02-4.01,4.02Z"/></g><g><path class="d" d="M89.95,60.26h-9.59V12.15h9.59V31.76c1.6-2.85,5.35-4.66,9.52-4.66s7.99,1.6,11.05,4.73c3.13,3.13,4.66,7.23,4.66,12.3s-1.53,9.04-4.66,12.16c-3.06,3.13-6.74,4.66-11.05,4.66s-7.92-1.74-9.52-4.73v4.03Zm7.72-8.48c4.17,0,7.51-3.13,7.51-7.85s-3.34-7.72-7.51-7.72-7.51,2.99-7.51,7.72,3.34,7.85,7.51,7.85Z"/><path class="d" d="M141.25,27.8h9.66V60.26h-9.66v-4.45c-1.67,3.13-5.14,5.14-8.41,5.14-7.58,0-12.86-4.87-12.86-13.76V27.8h9.66v17.31c0,4.66,2.92,6.46,5.77,6.46,3.34,0,5.84-2.09,5.84-6.6V27.8Z"/><path class="d" d="M187.81,33.99l-7.85,5.63c-1.39-2.15-3.48-3.27-6.26-3.27-2.15,0-4.03,.7-5.63,2.15-1.6,1.39-2.43,3.2-2.43,5.42s.83,4.17,2.43,5.63c1.6,1.46,3.48,2.15,5.63,2.15,2.78,0,4.87-1.11,6.26-3.27l7.85,5.56c-3.06,4.38-8.27,6.95-14.11,6.95-4.8,0-8.97-1.6-12.44-4.8-3.48-3.2-5.21-7.3-5.21-12.23s1.74-8.97,5.21-12.09c3.48-3.13,7.65-4.73,12.44-4.73,5.77,0,10.98,2.5,14.11,6.88Z"/><path class="d" d="M192.67,12.15h9.66V60.26h-9.66V12.15Z"/><path class="d" d="M224.64,60.82c-4.73,0-8.69-1.53-11.96-4.66-3.27-3.13-4.87-7.23-4.87-12.23s1.6-9.04,4.87-12.16c3.27-3.13,7.23-4.66,11.96-4.66s8.69,1.53,11.96,4.66c3.27,3.13,4.94,7.16,4.94,12.16s-1.67,9.11-4.94,12.23c-3.27,3.13-7.23,4.66-11.96,4.66Zm7.37-16.89c0-4.24-3.27-7.37-7.37-7.37s-7.3,3.13-7.3,7.37c0,4.45,3.2,7.44,7.3,7.44s7.37-2.99,7.37-7.44Z"/><path class="d" d="M263.08,60.82c-4.73,0-8.69-1.53-11.96-4.66-3.27-3.13-4.87-7.23-4.87-12.23s1.6-9.04,4.87-12.16c3.27-3.13,7.23-4.66,11.96-4.66s8.69,1.53,11.96,4.66c3.27,3.13,4.94,7.16,4.94,12.16s-1.67,9.11-4.94,12.23c-3.27,3.13-7.23,4.66-11.96,4.66Zm7.37-16.89c0-4.24-3.27-7.37-7.37-7.37s-7.3,3.13-7.3,7.37c0,4.45,3.2,7.44,7.3,7.44s7.37-2.99,7.37-7.44Z"/><path class="d" d="M294.7,47.4v12.86h-9.59V12.15h9.59v24.54l7.72-8.9h12.3l-13.49,14.32,16.2,18.14h-11.89l-10.84-12.86Z"/></g></g></g></g></svg>