<?xml version="1.0" encoding="UTF-8"?><svg xmlns="http://www.w3.org/2000/svg" viewBox="0 0 189.29 212.96"><defs><style>.d{fill:#6155ff;}</style></defs><g id="a"/><g id="b"><g id="c"><g><path class="d" d="M59.15,0h0c6.53,0,11.83,5.3,11.83,11.83V94.65c0,13.07,10.59,23.66,23.66,23.66h0v23.66h0c-26.14,0-47.33-21.19-47.33-47.33V11.83c0-6.53,5.3-11.83,11.83-11.83Z"/><path class="d" d="M11.83,0h0c6.53,0,11.83,5.3,11.83,11.83V94.65c0,39.21,31.78,70.99,70.99,70.99h0v23.66h0c-52.24,0-94.59-42.34-94.61-94.58L0,11.83C0,5.3,5.29,0,11.83,0Z"/><path class="d" d="M130.14,212.96h0c-6.53,0-11.83-5.3-11.83-11.83V118.31c0-13.07-10.59-23.66-23.66-23.66h0v-23.66h0c26.14,0,47.33,21.19,47.33,47.33v82.82c0,6.53-5.3,11.83-11.83,11.83Z"/><path class="d" d="M177.47,212.96h0c-6.53,0-11.83-5.3-11.83-11.83V118.31c0-39.21-31.78-70.99-70.99-70.99h0V23.66h0c52.24,0,94.59,42.34,94.61,94.58l.03,82.89c0,6.53-5.29,11.83-11.83,11.83Z"/></g></g></g></svg>