<?xml version="1.0" encoding="UTF-8"?><svg xmlns="http://www.w3.org/2000/svg" viewBox="0 0 596.93 143.59"><defs><style>.d{letter-spacing:0em;}.e{letter-spacing:0em;}.f{letter-spacing:0em;}.g{letter-spacing:-.03em;}.h{letter-spacing:-.01em;}.i{letter-spacing:0em;}.j{letter-spacing:-.01em;}.k{fill:none;stroke:#a4a8c2;stroke-linecap:round;stroke-miterlimit:10;stroke-width:7.5px;}.l{letter-spacing:0em;}.m{letter-spacing:0em;}.n{letter-spacing:-.01em;}.o{letter-spacing:0em;}.p{letter-spacing:0em;}.q{font-family:SofiaPro-Bold, Sofia Pro;font-size:89px;}.q,.r{fill:#a4a8c2;}.s{fill:#979bb0;font-family:SofiaPro-SemiBold, Sofia Pro;font-size:23px;}.t{letter-spacing:0em;}.u{letter-spacing:-.02em;}.v{letter-spacing:0em;}.w{letter-spacing:0em;}.x{letter-spacing:0em;}.y{letter-spacing:0em;}</style></defs><g id="a"/><g id="b"><g id="c"><g><text class="q" transform="translate(406.02 84.29)"><tspan x="0" y="0">=</tspan></text><text class="q" transform="translate(142.61 75.16)"><tspan x="0" y="0">+</tspan></text><path class="k" d="M285.64,55.3h0c-4.79,4.79-12.55,4.79-17.34,0l-14.35-14.35c-4.79-4.79-4.79-12.55,0-17.34h0c4.79-4.79,12.55-4.79,17.34,0l9.31,9.31"/><path class="k" d="M274.96,44.62c4.79-4.79,12.55-4.79,17.34,0l14.35,14.35c4.79,4.79,4.79,12.55,0,17.34h0c-4.79,4.79-12.55,4.79-17.34,0l-9.88-9.88"/><line class="k" x1="29.69" y1="75.5" x2="29.69" y2="19.4"/><circle class="k" cx="46.31" cy="58.88" r="16.63"/><g><path class="r" d="M537.44,11.91h0c2.49,0,4.52,2.02,4.52,4.52v31.61c0,4.99,4.04,9.03,9.03,9.03h0v9.03h0c-9.98,0-18.06-8.09-18.06-18.06V16.43c0-2.49,2.02-4.52,4.52-4.52Z"/><path class="r" d="M519.38,11.91h0c2.49,0,4.52,2.02,4.52,4.52v31.61c0,14.96,12.13,27.1,27.1,27.1h0v9.03h0c-19.94,0-36.11-16.16-36.11-36.1V16.43c-.01-2.49,2.01-4.52,4.5-4.52Z"/><path class="r" d="M564.54,93.2h0c-2.49,0-4.52-2.02-4.52-4.52v-31.61c0-4.99-4.04-9.03-9.03-9.03h0v-9.03h0c9.98,0,18.06,8.09,18.06,18.06v31.61c0,2.49-2.02,4.52-4.52,4.52Z"/><path class="r" d="M582.6,93.2h0c-2.49,0-4.52-2.02-4.52-4.52v-31.61c0-14.96-12.13-27.1-27.1-27.1h0v-9.03h0c19.94,0,36.11,16.16,36.11,36.1v31.64c.01,2.49-2.01,4.52-4.5,4.52Z"/></g></g><text class="s" transform="translate(0 137.29)"><tspan class="p" x="0" y="0">L</tspan><tspan class="t" x="11.52" y="0">e</tspan><tspan class="h" x="24.09" y="0">t</tspan><tspan class="f" x="31.93" y="0">r</tspan><tspan x="41.17" y="0">a </tspan><tspan class="j" x="60.99" y="0">“</tspan><tspan class="g" x="70.65" y="0">b</tspan><tspan class="m" x="83.88" y="0">”</tspan></text><text class="s" transform="translate(238.35 137.29)"><tspan class="l" x="0" y="0">C</tspan><tspan class="y" x="15.96" y="0">o</tspan><tspan class="x" x="28.88" y="0">n</tspan><tspan class="u" x="41.81" y="0">e</tspan><tspan class="v" x="54" y="0">x</tspan><tspan class="e" x="65.92" y="0">i</tspan><tspan class="o" x="71.68" y="0">ó</tspan><tspan x="84.6" y="0">n</tspan></text><text class="s" transform="translate(514.86 137.29)"><tspan class="i" x="0" y="0">b</tspan><tspan class="w" x="13.84" y="0">u</tspan><tspan class="n" x="26.75" y="0">c</tspan><tspan class="i" x="38.4" y="0">l</tspan><tspan class="d" x="44.28" y="0">o</tspan><tspan class="o" x="57.22" y="0">o</tspan><tspan class="m" x="70.14" y="0">k</tspan></text></g></g></svg>