<?xml version="1.0" encoding="UTF-8"?><svg xmlns="http://www.w3.org/2000/svg" viewBox="0 0 567.46 382.44"><defs><style>.d{font-family:SofiaPro-SemiBold, Sofia Pro;font-size:23px;}.d,.e{fill:#fff;}.f{fill:none;stroke:#fff;stroke-miterlimit:10;}.g{letter-spacing:0em;}.h{letter-spacing:0em;}.i{letter-spacing:0em;}.j{letter-spacing:0em;}.k{letter-spacing:0em;}.l{letter-spacing:0em;}.m{letter-spacing:-.02em;}.n{letter-spacing:-.02em;}</style></defs><g id="a"/><g id="b"><g id="c"><g><path class="e" d="M243.07,0h0c6.58,0,11.91,5.33,11.91,11.91V95.33c0,13.16,10.67,23.83,23.83,23.83h0v23.83h0c-26.32,0-47.66-21.34-47.66-47.66V11.91c0-6.58,5.33-11.91,11.91-11.91Z"/><path class="e" d="M195.41,0h0c6.58,0,11.91,5.33,11.91,11.91V95.33c0,39.49,32.01,71.5,71.5,71.5h0v23.83h0c-52.61,0-95.27-42.64-95.29-95.25l-.03-83.48c0-6.58,5.33-11.92,11.91-11.92Z"/><path class="e" d="M314.57,214.49h0c-6.58,0-11.91-5.33-11.91-11.91V119.16c0-13.16-10.67-23.83-23.83-23.83h0v-23.83h0c26.32,0,47.66,21.34,47.66,47.66v83.41c0,6.58-5.33,11.91-11.91,11.91Z"/><path class="e" d="M362.23,214.49h0c-6.58,0-11.91-5.33-11.91-11.91V119.16c0-39.49-32.01-71.5-71.5-71.5h0V23.83h0c52.61,0,95.27,42.64,95.29,95.25l.03,83.48c0,6.58-5.33,11.92-11.91,11.92Z"/></g><text class="d" transform="translate(225.08 376.14)"><tspan class="m" x="0" y="0">R</tspan><tspan class="g" x="14.17" y="0">e</tspan><tspan class="h" x="26.81" y="0">sp</tspan><tspan class="k" x="51.04" y="0">o</tspan><tspan class="i" x="63.95" y="0">n</tspan><tspan class="l" x="76.93" y="0">s</tspan><tspan class="j" x="87.27" y="0">i</tspan><tspan class="n" x="93.14" y="0">v</tspan><tspan x="104.59" y="0">e</tspan></text><line class="f" y1="336.32" x2="567.46" y2="336.32"/></g></g></svg>