<?xml version="1.0" encoding="UTF-8"?><svg xmlns="http://www.w3.org/2000/svg" viewBox="0 0 153.5 197.42"><defs><style>.d{fill:#f8f8f9;}.e{fill:#12093f;}.f{fill:#0d023e;}</style></defs><g id="a"/><g id="b"><g id="c"><rect class="d" width="153.5" height="197.42"/><rect class="e" x="6.22" y="5.37" width="141.07" height="103"/><g><path class="f" d="M32.92,163.16h2.64l-.6,2.12h-2.64l-1.2,3.86h2.64l-.62,2.12h-2.62l-1.22,3.75h-2.51l1.17-3.75h-2.35l-1.2,3.75h-2.48l1.2-3.75h-2.62l.6-2.12h2.6l1.17-3.86h-2.57l.6-2.12h2.6l1.2-4h2.55l-1.2,4h2.32l1.22-4h2.53l-1.22,4Zm-5.5,2.12l-1.17,3.86h2.32l1.2-3.86h-2.35Z"/><path class="f" d="M43.05,159.74v15.27h-3.22v-10.78l-2.58,1.1v-2.83l5.79-2.76Z"/><path class="f" d="M55.99,175.01h-9.8v-1.75l6.19-7.33c.53-.62,.8-1.17,.8-1.7,0-.83-.71-1.5-1.88-1.5s-1.96,.87-2.14,2.09l-2.94-.51c.46-2.88,2.44-4.67,5.27-4.67,1.36,0,2.53,.44,3.47,1.29,.96,.85,1.45,1.96,1.45,3.29s-.53,2.62-1.59,3.82l-3.47,3.93h4.65v3.04Z"/><path class="f" d="M64.6,159.65c2.12,0,3.63,.83,4.44,2.3,.83,1.47,1.15,3.22,1.15,5.52s-.32,4-1.15,5.47c-.8,1.47-2.32,2.3-4.44,2.3-3.75,0-5.63-2.6-5.63-7.77s1.89-7.82,5.63-7.82Zm0,12.46c1.59,0,2.37-1.54,2.37-4.64s-.78-4.69-2.37-4.69-2.41,1.56-2.41,4.69,.8,4.64,2.41,4.64Z"/><path class="f" d="M74.12,168.25c-.94-.9-1.4-2.14-1.4-3.75,0-1.45,.51-2.62,1.5-3.52,1.01-.9,2.35-1.33,3.98-1.33,1.45,0,2.67,.48,3.68,1.45,1.01,.94,1.59,2.21,1.72,3.79,.37,4.65-.44,10.55-6.09,10.35-2.05-.09-3.63-.8-4.64-2.92l3.01-1.29c.39,.81,.97,1.2,1.75,1.2,.69,0,1.27-.23,1.7-.69,.9-.92,1.13-2.18,1.06-3.66-.39,1.13-1.4,1.7-3.04,1.7-1.2,0-2.28-.44-3.22-1.33Zm2.51-2.16c.8,.76,2.02,.76,2.78,0,.8-.8,.8-2.02,0-2.78-.76-.8-1.98-.8-2.78,0-.76,.76-.76,1.98,0,2.78Z"/><path class="f" d="M89.32,168.48v-2.76h1.59c.99,0,1.47-.55,1.47-1.63,0-.62-.51-1.45-1.52-1.45-.71,0-1.24,.28-1.59,.83l-2.6-1.59c.92-1.45,2.69-2.35,4.69-2.23,1.29,.07,2.37,.51,3.22,1.36,.85,.83,1.27,1.79,1.24,2.87,0,1.2-.76,2.3-1.93,2.94,.8,.3,1.47,.85,1.96,1.66,.48,.8,.69,1.61,.62,2.44-.12,1.29-.76,2.34-1.93,3.2-1.17,.83-2.51,1.2-4,1.08-2.09-.11-3.98-1.4-4.81-3.15l2.83-1.4c.16,.34,.48,.69,.92,.99s.87,.44,1.31,.46c1.1,.07,2.07-.78,2.16-1.61,.05-.3,.21-2.07-2.05-2h-1.59Z"/><path class="f" d="M99.53,175.01v-15.84h9.91v2.97h-6.53v3.61h5.17v2.94h-5.17v6.32h-3.38Z"/></g></g></g></svg>