<?xml version="1.0" encoding="UTF-8"?><svg xmlns="http://www.w3.org/2000/svg" viewBox="0 0 190.65 214.49"><defs><style>.d{fill:#fff;}</style></defs><g id="a"/><g id="b"><g id="c"><g><path class="d" d="M59.57,0h0c6.58,0,11.91,5.33,11.91,11.91V95.33c0,13.16,10.67,23.83,23.83,23.83h0v23.83h0c-26.32,0-47.66-21.34-47.66-47.66V11.91c0-6.58,5.33-11.91,11.91-11.91Z"/><path class="d" d="M11.91,0h0c6.58,0,11.91,5.33,11.91,11.91V95.33c0,39.49,32.01,71.5,71.5,71.5h0v23.83h0c-52.61,0-95.27-42.64-95.29-95.25L0,11.92C0,5.34,5.33,0,11.91,0Z"/><path class="d" d="M131.07,214.49h0c-6.58,0-11.91-5.33-11.91-11.91V119.16c0-13.16-10.67-23.83-23.83-23.83h0v-23.83h0c26.32,0,47.66,21.34,47.66,47.66v83.41c0,6.58-5.33,11.91-11.91,11.91Z"/><path class="d" d="M178.73,214.49h0c-6.58,0-11.91-5.33-11.91-11.91V119.16c0-39.49-32.01-71.5-71.5-71.5h0V23.83h0c52.61,0,95.27,42.64,95.29,95.25l.03,83.48c0,6.58-5.33,11.92-11.91,11.92Z"/></g></g></g></svg>