<?xml version="1.0" encoding="UTF-8"?><svg xmlns="http://www.w3.org/2000/svg" viewBox="0 0 585.65 931.57"><defs><style>.d{fill:none;stroke:#ccd0d9;stroke-miterlimit:10;}</style></defs><g id="a"/><g id="b"><g id="c"><g><path class="d" d="M462.9,125.62h.01c15.65,15.66,15.65,41.04,0,56.69l-198.43,198.43c-31.31,31.31-31.31,82.08,0,113.39h0l-56.69,56.69h0c-62.62-62.62-62.62-164.15,0-226.77L406.22,125.62c15.65-15.65,41.03-15.65,56.68,0Z"/><path class="d" d="M349.52,12.24h0c15.65,15.65,15.65,41.03,0,56.68l-198.43,198.43c-93.93,93.93-93.93,246.23,0,340.16h0l-56.69,56.69h0c-125.16-125.16-125.2-328.07-.09-453.28L292.83,12.25c15.65-15.66,41.04-15.67,56.69-.01Z"/><path class="d" d="M122.75,805.95h-.01c-15.65-15.66-15.65-41.04,0-56.69l198.43-198.43c31.31-31.31,31.31-82.08,0-113.39h0l56.69-56.69h0c62.62,62.62,62.62,164.15,0,226.77l-198.43,198.43c-15.65,15.65-41.03,15.65-56.68,0Z"/><path class="d" d="M236.13,919.33h0c-15.65-15.65-15.65-41.03,0-56.68l198.43-198.43c93.93-93.93,93.93-246.23,0-340.16h0l56.69-56.69h0c125.16,125.16,125.2,328.07,.09,453.28l-198.52,198.68c-15.65,15.66-41.04,15.67-56.69,.01Z"/></g></g></g></svg>