<?xml version="1.0" encoding="UTF-8"?><svg xmlns="http://www.w3.org/2000/svg" viewBox="0 0 960.64 647.3"><defs><style>.d{fill:#6155ff;}.e{fill:#0c0a44;}</style></defs><g id="a"/><g id="b"><g id="c"><g><path class="e" d="M693.74,424.66l.09,105.57c0,29.47,23.89,53.37,53.37,53.37v53.37h0c-58.95,0-106.74-47.79-106.74-106.74v-105.4l53.28-.17Z"/><path class="e" d="M637.99,647.3h-69.27c-22.06-33.57-34.89-73.74-34.91-116.91l-.09-105.56h53.37v105.4c0,44.21,17.92,84.24,46.9,113.21,1.31,1.31,2.64,2.6,4,3.86Z"/><path class="e" d="M533.81,477.53l-.09-105.57c0-29.47-23.89-53.37-53.37-53.37v-53.37h0c58.95,0,106.74,47.79,106.74,106.74v105.4l-53.28,.17Z"/><path class="e" d="M693.83,477.36l-.09-105.57c-.05-117.82-95.57-213.3-213.39-213.3h0v53.37h0c88.42,0,160.1,71.68,160.1,160.1v105.4h53.37Z"/><polygon class="e" points="960.6 647.3 907.3 647.3 907.3 637.71 907.31 637.71 960.59 637.55 960.6 647.3"/><polygon class="e" points="853.94 637.71 853.94 647.3 800.58 647.3 800.57 637.71 853.94 637.71"/><path class="e" d="M853.94,584.85v62.45h-53.31v-9.59l-.06-52.86c0-29.48-23.9-53.37-53.37-53.37v-53.37c29.48,0,56.16,11.95,75.48,31.26,19.31,19.32,31.26,46,31.26,75.48Z"/><path class="e" d="M960.64,647.3h-53.33v-62.45c-.01-44.22-17.93-84.24-46.9-113.22-28.97-28.97-69-46.89-113.21-46.89v-53.37c117.82,0,213.34,95.49,213.39,213.31l.05,62.62Z"/><path class="e" d="M160.02,0l.04,49.81,.05,52.87c0,29.47,23.89,53.37,53.37,53.37v53.37c-29.48,0-56.16-11.95-75.48-31.26-19.31-19.32-31.26-46.01-31.26-75.48V0h53.28Z"/><path class="e" d="M53.37,0V102.68c0,44.21,17.92,84.23,46.9,113.21s69,46.89,113.21,46.89v53.37C95.66,316.15,.14,220.67,.09,102.85L0,0H53.37Z"/><polygon class="e" points="160.02 0 160.07 0 160.11 49.81 160.06 49.81 106.74 49.81 106.74 0 160.02 0"/><path class="e" d="M426.62,211.52l.09,105.57c0,29.47,23.89,53.37,53.37,53.37v53.37h0c-58.95,0-106.74-47.79-106.74-106.74v-105.4l53.28-.17Z"/><path class="e" d="M266.6,211.69l.09,105.57c.05,117.82,95.57,213.3,213.39,213.3h0v-53.37h0c-88.42,0-160.1-71.68-160.1-160.1v-105.4h-53.37Z"/><path class="e" d="M266.69,264.39l-.09-105.57c0-29.47-23.89-53.37-53.37-53.37V52.08h0c58.95,0,106.74,47.79,106.74,106.74v105.4l-53.28,.17Z"/><path class="e" d="M426.71,264.22h-53.37v-105.4c-.01-44.21-17.93-84.24-46.9-113.21C301.99,21.16,269.68,4.58,233.62,0h122.22c43.43,39.04,70.75,95.65,70.78,158.65l.09,105.57Z"/></g><g><path class="d" d="M444.84,237.28h0c6.53,0,11.83,5.3,11.83,11.83v82.82c0,13.07,10.59,23.66,23.66,23.66h0v23.66h0c-26.14,0-47.33-21.19-47.33-47.33v-82.82c0-6.53,5.3-11.83,11.83-11.83Z"/><path class="d" d="M397.52,237.28h0c6.53,0,11.83,5.3,11.83,11.83v82.82c0,39.21,31.78,70.99,70.99,70.99h0v23.66h0c-52.24,0-94.59-42.34-94.61-94.58l-.03-82.89c0-6.53,5.29-11.83,11.83-11.83Z"/><path class="d" d="M515.84,450.25h0c-6.53,0-11.83-5.3-11.83-11.83v-82.82c0-13.07-10.59-23.66-23.66-23.66h0v-23.66h0c26.14,0,47.33,21.19,47.33,47.33v82.82c0,6.53-5.3,11.83-11.83,11.83Z"/><path class="d" d="M563.16,450.25h0c-6.53,0-11.83-5.3-11.83-11.83v-82.82c0-39.21-31.78-70.99-70.99-70.99h0v-23.66h0c52.24,0,94.59,42.34,94.61,94.58l.03,82.89c0,6.53-5.29,11.83-11.83,11.83Z"/></g></g></g></svg>