<?xml version="1.0" encoding="UTF-8"?><svg xmlns="http://www.w3.org/2000/svg" viewBox="0 0 567.46 381.36"><defs><style>.d{fill:#fff;}.e{fill:none;stroke:#fff;stroke-miterlimit:10;}</style></defs><g id="a"/><g id="b"><g id="c"><g><path class="d" d="M243.07,0h0c6.58,0,11.91,5.33,11.91,11.91V95.33c0,13.16,10.67,23.83,23.83,23.83h0v23.83h0c-26.32,0-47.66-21.34-47.66-47.66V11.91c0-6.58,5.33-11.91,11.91-11.91Z"/><path class="d" d="M195.41,0h0c6.58,0,11.91,5.33,11.91,11.91V95.33c0,39.49,32.01,71.5,71.5,71.5h0v23.83h0c-52.61,0-95.27-42.64-95.29-95.25l-.03-83.48c0-6.58,5.33-11.92,11.91-11.92Z"/><path class="d" d="M314.57,214.49h0c-6.58,0-11.91-5.33-11.91-11.91V119.16c0-13.16-10.67-23.83-23.83-23.83h0v-23.83h0c26.32,0,47.66,21.34,47.66,47.66v83.41c0,6.58-5.33,11.91-11.91,11.91Z"/><path class="d" d="M362.23,214.49h0c-6.58,0-11.91-5.33-11.91-11.91V119.16c0-39.49-32.01-71.5-71.5-71.5h0V23.83h0c52.61,0,95.27,42.64,95.29,95.25l.03,83.48c0,6.58-5.33,11.92-11.91,11.92Z"/></g><g><path class="d" d="M238.49,376.14h-3.54l-3.73-5.63h-1.22v5.63h-2.94v-15.84h6.35c1.63,0,2.9,.51,3.75,1.52,.87,.99,1.31,2.21,1.31,3.61,0,1.22-.35,2.3-1.04,3.24-.67,.94-1.68,1.52-2.99,1.72l4.05,5.75Zm-8.49-13.22v4.97h3.17c1.45,0,2.23-1.15,2.23-2.46s-.76-2.51-2.14-2.51h-3.27Z"/><path class="d" d="M251.13,371.7h-8.19c.18,1.4,1.38,2.3,2.97,2.3,1.13,0,2.21-.48,2.69-1.38l2.14,1.15c-.92,1.75-2.87,2.6-5.01,2.6-1.56,0-2.87-.53-3.96-1.56-1.08-1.06-1.61-2.41-1.61-4.07s.53-2.99,1.61-4.02c1.08-1.04,2.39-1.54,3.96-1.54s2.85,.51,3.89,1.54c1.04,1.03,1.56,2.37,1.56,4.02,0,.3-.02,.62-.05,.97Zm-2.69-1.91c-.21-1.45-1.29-2.28-2.69-2.28-1.5,0-2.62,.87-2.83,2.28h5.52Z"/><path class="d" d="M256.07,371.66c-2.76-.78-3.04-2-3.04-3.29,0-.85,.39-1.61,1.17-2.23,.78-.64,1.7-.97,2.78-.97s2.09,.28,2.9,.83,1.24,1.4,1.29,2.55h-2.67c-.02-.74-.71-1.1-1.45-1.1-.9,0-1.36,.34-1.36,1.06,0,.39,.37,.69,1.13,.9l1.79,.44c2.46,.64,2.81,2.37,2.81,3.22,0,1.03-.44,1.86-1.31,2.44-.85,.57-1.89,.87-3.08,.87-1.13,0-2.14-.32-3.01-.96-.85-.67-1.29-1.54-1.31-2.64h2.62c.07,.76,.97,1.38,1.98,1.36,.8-.02,1.4-.46,1.4-1.08,.02-.53-.34-.83-1.17-1.01l-1.47-.37Z"/><path class="d" d="M266.66,365.4v1.45c.55-1.04,1.91-1.68,3.36-1.68s2.67,.53,3.7,1.56c1.03,1.04,1.54,2.39,1.54,4.02s-.51,3.04-1.54,4.07c-1.01,1.03-2.25,1.54-3.7,1.54s-2.81-.62-3.36-1.66v6.65h-2.81v-15.96h2.81Zm2.9,8.3c1.59,0,2.83-1.17,2.83-2.9,0-.85-.28-1.56-.83-2.12s-1.22-.83-2-.83c-1.59,0-2.85,1.2-2.85,2.94s1.29,2.9,2.85,2.9Z"/><path class="d" d="M282.62,376.35c-1.56,0-2.9-.53-3.98-1.56-1.08-1.04-1.61-2.39-1.61-4.05s.53-2.99,1.61-4.02c1.08-1.04,2.41-1.54,3.98-1.54s2.87,.51,3.96,1.54c1.08,1.03,1.63,2.37,1.63,4.02s-.55,3.01-1.63,4.05c-1.08,1.03-2.39,1.56-3.96,1.56Zm0-8.42c-1.59,0-2.81,1.15-2.81,2.8s1.22,2.88,2.81,2.88,2.8-1.15,2.8-2.88-1.22-2.8-2.8-2.8Z"/><path class="d" d="M293.42,376.14h-2.81v-10.74h2.81v1.59c.57-1.1,1.91-1.82,3.2-1.82,2.55,0,4,1.61,4,4.62v6.35h-2.81v-5.84c0-1.54-.78-2.39-2.05-2.39-1.38,0-2.34,.76-2.34,2.51v5.73Z"/><path class="d" d="M306.19,371.66c-2.76-.78-3.04-2-3.04-3.29,0-.85,.39-1.61,1.17-2.23,.78-.64,1.7-.97,2.78-.97s2.09,.28,2.9,.83,1.24,1.4,1.29,2.55h-2.67c-.02-.74-.71-1.1-1.45-1.1-.9,0-1.36,.34-1.36,1.06,0,.39,.37,.69,1.13,.9l1.79,.44c2.46,.64,2.81,2.37,2.81,3.22,0,1.03-.44,1.86-1.31,2.44-.85,.57-1.89,.87-3.08,.87-1.13,0-2.14-.32-3.01-.96-.85-.67-1.29-1.54-1.31-2.64h2.62c.07,.76,.97,1.38,1.98,1.36,.8-.02,1.4-.46,1.4-1.08,.02-.53-.34-.83-1.17-1.01l-1.47-.37Z"/><path class="d" d="M313.52,361.24c0-.94,.83-1.68,1.82-1.68s1.77,.74,1.77,1.68-.78,1.7-1.77,1.7-1.82-.76-1.82-1.7Zm3.2,4.16v10.74h-2.78v-10.74h2.78Z"/><path class="d" d="M322.93,376.14l-4.51-10.74h2.99l2.76,7.15,2.76-7.15h3.01l-4.53,10.74h-2.48Z"/><path class="d" d="M341.55,371.7h-8.19c.18,1.4,1.38,2.3,2.97,2.3,1.13,0,2.21-.48,2.69-1.38l2.14,1.15c-.92,1.75-2.88,2.6-5.01,2.6-1.56,0-2.87-.53-3.96-1.56-1.08-1.06-1.61-2.41-1.61-4.07s.53-2.99,1.61-4.02c1.08-1.04,2.39-1.54,3.96-1.54s2.85,.51,3.89,1.54,1.56,2.37,1.56,4.02c0,.3-.02,.62-.05,.97Zm-2.69-1.91c-.21-1.45-1.29-2.28-2.69-2.28-1.5,0-2.62,.87-2.83,2.28h5.52Z"/></g><line class="e" y1="336.32" x2="567.46" y2="336.32"/></g></g></svg>