<?xml version="1.0" encoding="UTF-8"?><svg xmlns="http://www.w3.org/2000/svg" viewBox="0 0 567.46 395.79"><defs><style>.d{fill:#12093f;}.e{fill:none;stroke:#979bb0;stroke-miterlimit:10;}.f{fill:#6155ff;}.g{fill:#979bb0;}</style></defs><g id="a"/><g id="b"><g id="c"><g><g><path class="f" d="M133.9,0h0c2.22,0,4.02,1.8,4.02,4.02v28.13c0,4.44,3.6,8.04,8.04,8.04h0v8.04h0c-8.88,0-16.07-7.2-16.07-16.07V4.02c0-2.22,1.8-4.02,4.02-4.02Z"/><path class="f" d="M117.83,0h0c2.22,0,4.02,1.8,4.02,4.02v28.13c0,13.31,10.79,24.11,24.11,24.11h0v8.04h0c-17.74,0-32.13-14.38-32.13-32.12V4.02c-.01-2.22,1.79-4.02,4.01-4.02Z"/><path class="f" d="M158.01,72.33h0c-2.22,0-4.02-1.8-4.02-4.02v-28.13c0-4.44-3.6-8.04-8.04-8.04h0v-8.04h0c8.88,0,16.07,7.2,16.07,16.07v28.13c0,2.22-1.8,4.02-4.02,4.02Z"/><path class="f" d="M174.08,72.33h0c-2.22,0-4.02-1.8-4.02-4.02v-28.13c0-13.31-10.79-24.11-24.11-24.11h0V8.04h0c17.74,0,32.13,14.38,32.13,32.12v28.15c.01,2.22-1.79,4.02-4.01,4.02Z"/></g><g><path class="d" d="M203.76,60.26h-9.59V12.15h9.59V31.76c1.6-2.85,5.35-4.66,9.52-4.66s7.99,1.6,11.05,4.73c3.13,3.13,4.66,7.23,4.66,12.3s-1.53,9.04-4.66,12.16c-3.06,3.13-6.74,4.66-11.05,4.66s-7.92-1.74-9.52-4.73v4.03Zm7.72-8.48c4.17,0,7.51-3.13,7.51-7.85s-3.34-7.72-7.51-7.72-7.51,2.99-7.51,7.72,3.34,7.85,7.51,7.85Z"/><path class="d" d="M255.06,27.8h9.66V60.26h-9.66v-4.45c-1.67,3.13-5.14,5.14-8.41,5.14-7.58,0-12.86-4.87-12.86-13.76V27.8h9.66v17.31c0,4.66,2.92,6.46,5.77,6.46,3.34,0,5.84-2.09,5.84-6.6V27.8Z"/><path class="d" d="M301.62,33.99l-7.85,5.63c-1.39-2.15-3.48-3.27-6.26-3.27-2.15,0-4.03,.7-5.63,2.15-1.6,1.39-2.43,3.2-2.43,5.42s.83,4.17,2.43,5.63c1.6,1.46,3.48,2.15,5.63,2.15,2.78,0,4.87-1.11,6.26-3.27l7.85,5.56c-3.06,4.38-8.27,6.95-14.11,6.95-4.8,0-8.97-1.6-12.44-4.8-3.48-3.2-5.21-7.3-5.21-12.23s1.74-8.97,5.21-12.09c3.48-3.13,7.65-4.73,12.44-4.73,5.77,0,10.98,2.5,14.11,6.88Z"/><path class="d" d="M306.48,12.15h9.66V60.26h-9.66V12.15Z"/><path class="d" d="M338.45,60.82c-4.73,0-8.69-1.53-11.96-4.66-3.27-3.13-4.87-7.23-4.87-12.23s1.6-9.04,4.87-12.16c3.27-3.13,7.23-4.66,11.96-4.66s8.69,1.53,11.96,4.66c3.27,3.13,4.94,7.16,4.94,12.16s-1.67,9.11-4.94,12.23c-3.27,3.13-7.23,4.66-11.96,4.66Zm7.37-16.89c0-4.24-3.27-7.37-7.37-7.37s-7.3,3.13-7.3,7.37c0,4.45,3.2,7.44,7.3,7.44s7.37-2.99,7.37-7.44Z"/><path class="d" d="M376.89,60.82c-4.73,0-8.69-1.53-11.96-4.66-3.27-3.13-4.87-7.23-4.87-12.23s1.6-9.04,4.87-12.16c3.27-3.13,7.23-4.66,11.96-4.66s8.69,1.53,11.96,4.66c3.27,3.13,4.94,7.16,4.94,12.16s-1.67,9.11-4.94,12.23c-3.27,3.13-7.23,4.66-11.96,4.66Zm7.37-16.89c0-4.24-3.27-7.37-7.37-7.37s-7.3,3.13-7.3,7.37c0,4.45,3.2,7.44,7.3,7.44s7.37-2.99,7.37-7.44Z"/><path class="d" d="M408.51,47.4v12.86h-9.59V12.15h9.59v24.54l7.72-8.9h12.3l-13.49,14.32,16.2,18.14h-11.89l-10.84-12.86Z"/></g></g><g><g><path class="f" d="M133.9,218.56h0c2.22,0,4.02,1.8,4.02,4.02v28.13c0,4.44,3.6,8.04,8.04,8.04h0v8.04h0c-8.88,0-16.07-7.2-16.07-16.07v-28.13c0-2.22,1.8-4.02,4.02-4.02Z"/><path class="f" d="M117.83,218.56h0c2.22,0,4.02,1.8,4.02,4.02v28.13c0,13.31,10.79,24.11,24.11,24.11h0v8.04h0c-17.74,0-32.13-14.38-32.13-32.12v-28.15c-.01-2.22,1.79-4.02,4.01-4.02Z"/><path class="f" d="M158.01,290.89h0c-2.22,0-4.02-1.8-4.02-4.02v-28.13c0-4.44-3.6-8.04-8.04-8.04h0v-8.04h0c8.88,0,16.07,7.2,16.07,16.07v28.13c0,2.22-1.8,4.02-4.02,4.02Z"/><path class="f" d="M174.08,290.89h0c-2.22,0-4.02-1.8-4.02-4.02v-28.13c0-13.31-10.79-24.11-24.11-24.11h0v-8.04h0c17.74,0,32.13,14.38,32.13,32.12v28.15c.01,2.22-1.79,4.02-4.01,4.02Z"/></g><g><path class="d" d="M203.76,278.82h-9.59v-48.11h9.59v19.61c1.6-2.85,5.35-4.66,9.52-4.66s7.99,1.6,11.05,4.73c3.13,3.13,4.66,7.23,4.66,12.3s-1.53,9.04-4.66,12.16c-3.06,3.13-6.74,4.66-11.05,4.66s-7.92-1.74-9.52-4.73v4.03Zm7.72-8.48c4.17,0,7.51-3.13,7.51-7.85s-3.34-7.72-7.51-7.72-7.51,2.99-7.51,7.72,3.34,7.85,7.51,7.85Z"/><path class="d" d="M255.06,246.36h9.66v32.46h-9.66v-4.45c-1.67,3.13-5.14,5.14-8.41,5.14-7.58,0-12.86-4.87-12.86-13.76v-19.39h9.66v17.31c0,4.66,2.92,6.46,5.77,6.46,3.34,0,5.84-2.09,5.84-6.6v-17.17Z"/><path class="d" d="M301.62,252.55l-7.85,5.63c-1.39-2.15-3.48-3.27-6.26-3.27-2.15,0-4.03,.7-5.63,2.15-1.6,1.39-2.43,3.2-2.43,5.42s.83,4.17,2.43,5.63c1.6,1.46,3.48,2.15,5.63,2.15,2.78,0,4.87-1.11,6.26-3.27l7.85,5.56c-3.06,4.38-8.27,6.95-14.11,6.95-4.8,0-8.97-1.6-12.44-4.8-3.48-3.2-5.21-7.3-5.21-12.23s1.74-8.97,5.21-12.09c3.48-3.13,7.65-4.73,12.44-4.73,5.77,0,10.98,2.5,14.11,6.88Z"/><path class="d" d="M306.48,230.72h9.66v48.11h-9.66v-48.11Z"/><path class="d" d="M338.45,279.38c-4.73,0-8.69-1.53-11.96-4.66-3.27-3.13-4.87-7.23-4.87-12.23s1.6-9.04,4.87-12.16c3.27-3.13,7.23-4.66,11.96-4.66s8.69,1.53,11.96,4.66c3.27,3.13,4.94,7.16,4.94,12.16s-1.67,9.11-4.94,12.23c-3.27,3.13-7.23,4.66-11.96,4.66Zm7.37-16.89c0-4.24-3.27-7.37-7.37-7.37s-7.3,3.13-7.3,7.37c0,4.45,3.2,7.44,7.3,7.44s7.37-2.99,7.37-7.44Z"/><path class="d" d="M376.89,279.38c-4.73,0-8.69-1.53-11.96-4.66-3.27-3.13-4.87-7.23-4.87-12.23s1.6-9.04,4.87-12.16c3.27-3.13,7.23-4.66,11.96-4.66s8.69,1.53,11.96,4.66c3.27,3.13,4.94,7.16,4.94,12.16s-1.67,9.11-4.94,12.23c-3.27,3.13-7.23,4.66-11.96,4.66Zm7.37-16.89c0-4.24-3.27-7.37-7.37-7.37s-7.3,3.13-7.3,7.37c0,4.45,3.2,7.44,7.3,7.44s7.37-2.99,7.37-7.44Z"/><path class="d" d="M408.51,265.96v12.86h-9.59v-48.11h9.59v24.54l7.72-8.9h12.3l-13.49,14.32,16.2,18.14h-11.89l-10.84-12.86Z"/></g></g><g><path class="g" d="M232.3,141.57c.07,1.22,1.1,2.23,2.74,2.23,1.54,0,2.55-.8,2.62-1.91,.07-1.04-.64-1.72-2.18-2.16l-1.95-.51c-2.67-.78-4-2.25-4-4.42,0-1.36,.51-2.48,1.54-3.33,1.03-.87,2.3-1.31,3.79-1.31s2.78,.44,3.77,1.31c.99,.85,1.49,2.02,1.49,3.47h-2.94c0-1.26-.9-2.07-2.37-2.07-1.36,0-2.37,.76-2.37,1.86,0,.87,.62,1.47,1.89,1.82l1.95,.58c3.29,.9,4.48,2.71,4.32,4.83-.07,1.38-.62,2.48-1.7,3.29-1.06,.8-2.35,1.2-3.86,1.2-1.68,0-3.04-.46-4.09-1.4-1.06-.94-1.59-2.09-1.59-3.47h2.94Z"/><path class="g" d="M242.79,131.3c0-.94,.83-1.68,1.82-1.68s1.77,.74,1.77,1.68-.78,1.7-1.77,1.7-1.82-.76-1.82-1.7Zm3.2,4.16v10.74h-2.78v-10.74h2.78Z"/><path class="g" d="M251.8,146.2h-2.81v-10.74h2.81v1.59c.57-1.1,1.91-1.82,3.2-1.82,2.55,0,4,1.61,4,4.62v6.35h-2.81v-5.84c0-1.54-.78-2.39-2.05-2.39-1.38,0-2.35,.76-2.35,2.51v5.73Z"/><path class="g" d="M271.42,131.36v4.09h2.28v2.25h-2.28v8.49h-2.78v-8.49h-1.95v-2.25h1.95v-4.09h2.78Z"/><path class="g" d="M283.71,146.2v-1.38c-.64,1.01-2.14,1.59-3.33,1.59-1.47,0-2.76-.51-3.84-1.54-1.08-1.03-1.63-2.39-1.63-4.05s.53-2.99,1.61-4.02c1.08-1.03,2.37-1.56,3.86-1.56,1.2,0,2.62,.48,3.33,1.56v-1.33h2.81v10.74h-2.81Zm-.9-7.5c-.57-.53-1.26-.78-2.05-.78s-1.49,.28-2.09,.83c-.57,.53-.87,1.22-.87,2.07s.3,1.54,.87,2.09c1.7,1.7,5.15,.57,5.04-2.09,0-.9-.3-1.59-.9-2.12Z"/><path class="g" d="M291.61,147.23c.46,1.03,1.68,1.77,2.85,1.77,2.51,0,3.45-1.77,3.27-4.28-.53,1.04-1.95,1.7-3.43,1.7s-2.71-.51-3.79-1.54c-1.06-1.04-1.59-2.39-1.59-4.02s.53-3.04,1.59-4.07c1.08-1.03,2.35-1.56,3.79-1.56s2.85,.64,3.43,1.68v-1.45h2.74v9.2c0,4.67-2.16,6.9-6,6.9-2.23,0-4.19-1.22-5.13-3.17l2.28-1.15Zm3.13-9.31c-1.59,0-2.9,1.22-2.9,2.9s1.26,2.94,2.9,2.94c.76,0,1.45-.28,2.02-.8,.6-.55,.9-1.26,.9-2.14,0-1.77-1.29-2.9-2.92-2.9Z"/><path class="g" d="M303.49,146.2v-16.58h2.81v16.58h-2.81Z"/><path class="g" d="M308.89,131.3c0-.94,.83-1.68,1.82-1.68s1.77,.74,1.77,1.68-.78,1.7-1.77,1.7-1.82-.76-1.82-1.7Zm3.2,4.16v10.74h-2.78v-10.74h2.78Z"/><path class="g" d="M317.9,146.2h-2.81v-10.74h2.81v1.59c.57-1.1,1.91-1.82,3.2-1.82,2.55,0,4,1.61,4,4.62v6.35h-2.81v-5.84c0-1.54-.78-2.39-2.05-2.39-1.38,0-2.35,.76-2.35,2.51v5.73Z"/><path class="g" d="M338.33,141.76h-8.19c.18,1.4,1.38,2.3,2.97,2.3,1.13,0,2.21-.48,2.69-1.38l2.14,1.15c-.92,1.75-2.87,2.6-5.01,2.6-1.56,0-2.87-.53-3.96-1.56-1.08-1.06-1.61-2.41-1.61-4.07s.53-2.99,1.61-4.02c1.08-1.04,2.39-1.54,3.96-1.54s2.85,.51,3.89,1.54c1.04,1.03,1.56,2.37,1.56,4.02,0,.3-.02,.62-.05,.97Zm-2.69-1.91c-.21-1.45-1.29-2.28-2.69-2.28-1.5,0-2.62,.87-2.83,2.28h5.52Z"/></g><line class="e" y1="106.37" x2="567.46" y2="106.37"/><g><path class="g" d="M238.84,387.44c-1.4,2-3.75,3.22-6.44,3.22-2.23,0-4.14-.78-5.68-2.37-1.54-1.59-2.3-3.52-2.3-5.75s.76-4.18,2.3-5.77c1.54-1.59,3.45-2.37,5.68-2.37,2.64,0,4.97,1.2,6.37,3.13l-2.35,1.68c-1.03-1.36-2.39-2.02-4.02-2.02-1.43,0-2.62,.53-3.59,1.56-.97,1.04-1.45,2.3-1.45,3.79s.48,2.76,1.45,3.79c.97,1.03,2.16,1.54,3.59,1.54,1.66,0,3.17-.83,4.12-2.14l2.32,1.7Z"/><path class="g" d="M245.88,390.64c-1.56,0-2.9-.53-3.98-1.56-1.08-1.04-1.61-2.39-1.61-4.05s.53-2.99,1.61-4.02c1.08-1.04,2.41-1.54,3.98-1.54s2.87,.51,3.96,1.54c1.08,1.03,1.63,2.37,1.63,4.02s-.55,3.01-1.63,4.05c-1.08,1.03-2.39,1.56-3.96,1.56Zm0-8.42c-1.59,0-2.81,1.15-2.81,2.8s1.22,2.88,2.81,2.88,2.81-1.15,2.81-2.88-1.22-2.8-2.81-2.8Z"/><path class="g" d="M256.69,390.43h-2.81v-10.74h2.81v1.59c.57-1.1,1.91-1.82,3.2-1.82,2.55,0,4,1.61,4,4.62v6.35h-2.81v-5.84c0-1.54-.78-2.39-2.05-2.39-1.38,0-2.35,.76-2.35,2.51v5.73Z"/><path class="g" d="M276.3,375.6v4.09h2.28v2.25h-2.28v8.49h-2.78v-8.49h-1.95v-2.25h1.95v-4.09h2.78Z"/><path class="g" d="M288.59,390.43v-1.38c-.64,1.01-2.14,1.59-3.33,1.59-1.47,0-2.76-.51-3.84-1.54-1.08-1.03-1.63-2.39-1.63-4.05s.53-2.99,1.61-4.02c1.08-1.03,2.37-1.56,3.86-1.56,1.2,0,2.62,.48,3.33,1.56v-1.33h2.81v10.74h-2.81Zm-.9-7.5c-.57-.53-1.26-.78-2.05-.78s-1.49,.28-2.09,.83c-.57,.53-.87,1.22-.87,2.07s.3,1.54,.87,2.09c1.7,1.7,5.15,.57,5.04-2.09,0-.9-.3-1.59-.9-2.12Z"/><path class="g" d="M296.5,391.47c.46,1.03,1.68,1.77,2.85,1.77,2.51,0,3.45-1.77,3.27-4.28-.53,1.04-1.95,1.7-3.43,1.7s-2.71-.51-3.79-1.54c-1.06-1.04-1.59-2.39-1.59-4.02s.53-3.04,1.59-4.07c1.08-1.03,2.35-1.56,3.79-1.56s2.85,.64,3.43,1.68v-1.45h2.74v9.2c0,4.67-2.16,6.9-6,6.9-2.23,0-4.19-1.22-5.13-3.17l2.28-1.15Zm3.13-9.31c-1.59,0-2.9,1.22-2.9,2.9s1.26,2.94,2.9,2.94c.76,0,1.45-.28,2.02-.8,.6-.55,.9-1.26,.9-2.14,0-1.77-1.29-2.9-2.92-2.9Z"/><path class="g" d="M308.37,390.43v-16.58h2.81v16.58h-2.81Z"/><path class="g" d="M313.78,375.53c0-.94,.83-1.68,1.82-1.68s1.77,.74,1.77,1.68-.78,1.7-1.77,1.7-1.82-.76-1.82-1.7Zm3.2,4.16v10.74h-2.78v-10.74h2.78Z"/><path class="g" d="M322.79,390.43h-2.81v-10.74h2.81v1.59c.57-1.1,1.91-1.82,3.2-1.82,2.55,0,4,1.61,4,4.62v6.35h-2.81v-5.84c0-1.54-.78-2.39-2.05-2.39-1.38,0-2.35,.76-2.35,2.51v5.73Z"/><path class="g" d="M343.22,385.99h-8.19c.18,1.4,1.38,2.3,2.97,2.3,1.13,0,2.21-.48,2.69-1.38l2.14,1.15c-.92,1.75-2.87,2.6-5.01,2.6-1.56,0-2.87-.53-3.96-1.56-1.08-1.06-1.61-2.41-1.61-4.07s.53-2.99,1.61-4.02c1.08-1.04,2.39-1.54,3.96-1.54s2.85,.51,3.89,1.54c1.04,1.03,1.56,2.37,1.56,4.02,0,.3-.02,.62-.05,.97Zm-2.69-1.91c-.21-1.45-1.29-2.28-2.69-2.28-1.5,0-2.62,.87-2.83,2.28h5.52Z"/></g><line class="e" y1="350.61" x2="567.46" y2="350.61"/><g><path class="f" d="M245.84,299.87l-2.76,1.98c-.49-.76-1.22-1.15-2.2-1.15-.76,0-1.42,.24-1.98,.76-.56,.49-.86,1.12-.86,1.91s.29,1.47,.86,1.98c.56,.51,1.22,.76,1.98,.76,.98,0,1.71-.39,2.2-1.15l2.76,1.96c-1.08,1.54-2.91,2.45-4.97,2.45-1.69,0-3.16-.56-4.38-1.69-1.22-1.12-1.83-2.57-1.83-4.3s.61-3.16,1.83-4.26c1.22-1.1,2.69-1.66,4.38-1.66,2.03,0,3.86,.88,4.97,2.42Z"/><path class="f" d="M253.01,309.31c-1.66,0-3.06-.54-4.21-1.64s-1.71-2.54-1.71-4.3,.56-3.18,1.71-4.28,2.54-1.64,4.21-1.64,3.06,.54,4.21,1.64c1.15,1.1,1.74,2.52,1.74,4.28s-.59,3.2-1.74,4.3c-1.15,1.1-2.54,1.64-4.21,1.64Zm2.59-5.94c0-1.49-1.15-2.59-2.59-2.59s-2.57,1.1-2.57,2.59c0,1.57,1.13,2.62,2.57,2.62s2.59-1.05,2.59-2.62Z"/><path class="f" d="M264.71,309.11h-3.4v-11.42h3.4v1.66c.61-1.15,1.96-1.91,3.3-1.91,2.64,0,4.18,1.64,4.18,4.84v6.82h-3.4v-6.09c0-1.47-.78-2.27-1.98-2.27-1.39,0-2.1,.78-2.1,2.32v6.04Z"/><path class="f" d="M285.62,307.03c-1.05,1.54-2.79,2.32-5.21,2.32-1.69,0-3.11-.56-4.26-1.66-1.15-1.12-1.71-2.57-1.71-4.33s.56-3.18,1.71-4.28,2.57-1.64,4.26-1.64,3.06,.56,4.16,1.69c1.12,1.1,1.69,2.54,1.69,4.33,0,.32-.02,.66-.05,1.05h-8.37c.17,1.25,1.47,1.91,2.81,1.91,1.1,0,1.93-.37,2.5-1.08l2.47,1.69Zm-2.79-4.65c-.34-2.59-4.4-2.62-4.94,0h4.94Z"/><path class="f" d="M291.07,302.92l-3.77-5.23h3.96l1.71,2.52,1.69-2.52h3.94l-3.77,5.23,4.48,6.19h-3.94l-2.42-3.5-2.45,3.5h-3.94l4.5-6.19Z"/><path class="f" d="M304.72,293.46c0,1.1-.93,2.01-2.08,2.01s-2.13-.91-2.13-2.01,.95-1.98,2.13-1.98,2.08,.88,2.08,1.98Zm-.39,4.23v11.42h-3.38v-11.42h3.38Z"/><path class="f" d="M316.69,307.67c-1.15,1.1-2.54,1.64-4.21,1.64s-3.06-.54-4.21-1.64-1.71-2.54-1.71-4.3,.56-3.16,1.71-4.23c1.15-1.1,2.54-1.64,4.21-1.64s3.06,.54,4.21,1.64c1.15,1.08,1.74,2.5,1.74,4.23s-.59,3.2-1.74,4.3Zm-1.61-4.3c0-1.49-1.12-2.54-2.59-2.54s-2.57,1.05-2.57,2.54c0,1.57,1.13,2.62,2.57,2.62s2.59-1.05,2.59-2.62Zm-1.35-11.54h3.38l-3.62,4.11h-2.45l2.69-4.11Z"/><path class="f" d="M324.17,309.11h-3.4v-11.42h3.4v1.66c.61-1.15,1.96-1.91,3.3-1.91,2.64,0,4.18,1.64,4.18,4.84v6.82h-3.4v-6.09c0-1.47-.78-2.27-1.98-2.27-1.39,0-2.1,.78-2.1,2.32v6.04Z"/><path class="f" d="M351.13,299.87l-2.76,1.98c-.49-.76-1.22-1.15-2.2-1.15-.76,0-1.42,.24-1.98,.76-.56,.49-.86,1.12-.86,1.91s.29,1.47,.86,1.98c.56,.51,1.22,.76,1.98,.76,.98,0,1.71-.39,2.2-1.15l2.76,1.96c-1.08,1.54-2.91,2.45-4.97,2.45-1.69,0-3.16-.56-4.38-1.69-1.22-1.12-1.83-2.57-1.83-4.3s.61-3.16,1.83-4.26c1.22-1.1,2.69-1.66,4.38-1.66,2.03,0,3.86,.88,4.97,2.42Z"/><path class="f" d="M356.61,309.11h-3.4v-11.42h3.4v2.76c.56-1.98,1.93-3.01,3.23-3.01,.76,0,1.39,.15,1.96,.42l-.61,3.06c-.46-.22-1.05-.34-1.74-.34-1.88,0-2.84,1.52-2.84,4.55v3.99Z"/><path class="f" d="M373.84,307.03c-1.05,1.54-2.79,2.32-5.21,2.32-1.69,0-3.11-.56-4.26-1.66-1.15-1.12-1.71-2.57-1.71-4.33s.56-3.18,1.71-4.28,2.57-1.64,4.26-1.64,3.06,.56,4.16,1.69c1.12,1.1,1.69,2.54,1.69,4.33,0,.32-.02,.66-.05,1.05h-8.37c.17,1.25,1.47,1.91,2.81,1.91,1.1,0,1.93-.37,2.5-1.08l2.47,1.69Zm-2.79-4.65c-.34-2.59-4.4-2.62-4.94,0h4.94Z"/><path class="f" d="M385.24,309.11v-1.3c-.32,.49-.83,.86-1.52,1.12-.66,.27-1.27,.39-1.81,.39-1.54,0-2.89-.54-4.06-1.64-1.17-1.1-1.76-2.54-1.76-4.3s.59-3.18,1.76-4.28c1.17-1.1,2.52-1.66,4.06-1.66,1.08,0,2.54,.42,3.33,1.52v-1.27h3.38v11.42h-3.38Zm0-5.72c0-1.64-1.3-2.71-2.76-2.71-.76,0-1.42,.27-2.01,.78-.56,.51-.86,1.15-.86,1.93s.29,1.44,.86,1.96c.59,.51,1.25,.76,2.01,.76,1.47,0,2.76-1.08,2.76-2.71Z"/><path class="f" d="M396.08,297.69h2.4v2.69h-2.4v8.73h-3.38v-8.73h-2.08v-2.69h2.08v-4.38h3.38v4.38Z"/><path class="f" d="M404.06,293.46c0,1.1-.93,2.01-2.08,2.01s-2.13-.91-2.13-2.01,.95-1.98,2.13-1.98,2.08,.88,2.08,1.98Zm-.39,4.23v11.42h-3.38v-11.42h3.38Z"/><path class="f" d="M410.08,309.11l-4.82-11.42h3.62l2.67,7.09,2.64-7.09h3.64l-4.84,11.42h-2.91Z"/><path class="f" d="M427.42,309.11v-1.3c-.32,.49-.83,.86-1.52,1.12-.66,.27-1.27,.39-1.81,.39-1.54,0-2.89-.54-4.06-1.64-1.17-1.1-1.76-2.54-1.76-4.3s.59-3.18,1.76-4.28c1.17-1.1,2.52-1.66,4.06-1.66,1.08,0,2.54,.42,3.33,1.52v-1.27h3.38v11.42h-3.38Zm0-5.72c0-1.64-1.3-2.71-2.76-2.71-.76,0-1.42,.27-2.01,.78-.56,.51-.86,1.15-.86,1.93s.29,1.44,.86,1.96c.59,.51,1.25,.76,2.01,.76,1.47,0,2.76-1.08,2.76-2.71Z"/></g></g></g></svg>