<?xml version="1.0" encoding="UTF-8"?><svg xmlns="http://www.w3.org/2000/svg" viewBox="0 0 567.46 178.17"><defs><style>.d{letter-spacing:-.02em;}.e{letter-spacing:-.01em;}.f{fill:#12093f;}.g{letter-spacing:-.02em;}.h{letter-spacing:0em;}.i{letter-spacing:0em;}.j{fill:none;stroke:#979bb0;stroke-miterlimit:10;}.k,.l{fill:#6155ff;}.m{letter-spacing:0em;}.n{letter-spacing:0em;}.o{letter-spacing:0em;}.p{letter-spacing:-.01em;}.q{letter-spacing:-.01em;}.r{letter-spacing:0em;}.s{letter-spacing:0em;}.t{letter-spacing:0em;}.u{letter-spacing:0em;}.v{letter-spacing:0em;}.w{fill:#979bb0;font-family:SofiaPro-SemiBold, Sofia Pro;font-size:23px;}.x{letter-spacing:0em;}.l{font-family:SofiaPro-Bold, Sofia Pro;font-size:24.47px;}.y{letter-spacing:0em;}.a`{letter-spacing:-.02em;}.aa{letter-spacing:0em;}.ab{letter-spacing:0em;}</style></defs><g id="a"/><g id="b"><g id="c"><g><g><path class="k" d="M133.9,0h0c2.22,0,4.02,1.8,4.02,4.02v28.13c0,4.44,3.6,8.04,8.04,8.04h0v8.04h0c-8.88,0-16.07-7.2-16.07-16.07V4.02c0-2.22,1.8-4.02,4.02-4.02Z"/><path class="k" d="M117.83,0h0c2.22,0,4.02,1.8,4.02,4.02v28.13c0,13.31,10.79,24.11,24.11,24.11h0v8.04h0c-17.74,0-32.13-14.38-32.13-32.12V4.02c-.01-2.22,1.79-4.02,4.01-4.02Z"/><path class="k" d="M158.01,72.33h0c-2.22,0-4.02-1.8-4.02-4.02v-28.13c0-4.44-3.6-8.04-8.04-8.04h0v-8.04h0c8.88,0,16.07,7.2,16.07,16.07v28.13c0,2.22-1.8,4.02-4.02,4.02Z"/><path class="k" d="M174.08,72.33h0c-2.22,0-4.02-1.8-4.02-4.02v-28.13c0-13.31-10.79-24.11-24.11-24.11h0V8.04h0c17.74,0,32.13,14.38,32.13,32.12v28.15c.01,2.22-1.79,4.02-4.01,4.02Z"/></g><g><path class="f" d="M203.76,60.26h-9.59V12.15h9.59V31.76c1.6-2.85,5.35-4.66,9.52-4.66s7.99,1.6,11.05,4.73c3.13,3.13,4.66,7.23,4.66,12.3s-1.53,9.04-4.66,12.16c-3.06,3.13-6.74,4.66-11.05,4.66s-7.92-1.74-9.52-4.73v4.03Zm7.72-8.48c4.17,0,7.51-3.13,7.51-7.85s-3.34-7.72-7.51-7.72-7.51,2.99-7.51,7.72,3.34,7.85,7.51,7.85Z"/><path class="f" d="M255.06,27.8h9.66V60.26h-9.66v-4.45c-1.67,3.13-5.14,5.14-8.41,5.14-7.58,0-12.86-4.87-12.86-13.76V27.8h9.66v17.31c0,4.66,2.92,6.46,5.77,6.46,3.34,0,5.84-2.09,5.84-6.6V27.8Z"/><path class="f" d="M301.62,33.99l-7.85,5.63c-1.39-2.15-3.48-3.27-6.26-3.27-2.15,0-4.03,.7-5.63,2.15-1.6,1.39-2.43,3.2-2.43,5.42s.83,4.17,2.43,5.63c1.6,1.46,3.48,2.15,5.63,2.15,2.78,0,4.87-1.11,6.26-3.27l7.85,5.56c-3.06,4.38-8.27,6.95-14.11,6.95-4.8,0-8.97-1.6-12.44-4.8-3.48-3.2-5.21-7.3-5.21-12.23s1.74-8.97,5.21-12.09c3.48-3.13,7.65-4.73,12.44-4.73,5.77,0,10.98,2.5,14.11,6.88Z"/><path class="f" d="M306.48,12.15h9.66V60.26h-9.66V12.15Z"/><path class="f" d="M338.45,60.82c-4.73,0-8.69-1.53-11.96-4.66-3.27-3.13-4.87-7.23-4.87-12.23s1.6-9.04,4.87-12.16c3.27-3.13,7.23-4.66,11.96-4.66s8.69,1.53,11.96,4.66c3.27,3.13,4.94,7.16,4.94,12.16s-1.67,9.11-4.94,12.23c-3.27,3.13-7.23,4.66-11.96,4.66Zm7.37-16.89c0-4.24-3.27-7.37-7.37-7.37s-7.3,3.13-7.3,7.37c0,4.45,3.2,7.44,7.3,7.44s7.37-2.99,7.37-7.44Z"/><path class="f" d="M376.89,60.82c-4.73,0-8.69-1.53-11.96-4.66-3.27-3.13-4.87-7.23-4.87-12.23s1.6-9.04,4.87-12.16c3.27-3.13,7.23-4.66,11.96-4.66s8.69,1.53,11.96,4.66c3.27,3.13,4.94,7.16,4.94,12.16s-1.67,9.11-4.94,12.23c-3.27,3.13-7.23,4.66-11.96,4.66Zm7.37-16.89c0-4.24-3.27-7.37-7.37-7.37s-7.3,3.13-7.3,7.37c0,4.45,3.2,7.44,7.3,7.44s7.37-2.99,7.37-7.44Z"/><path class="f" d="M408.51,47.4v12.86h-9.59V12.15h9.59v24.54l7.72-8.9h12.3l-13.49,14.32,16.2,18.14h-11.89l-10.84-12.86Z"/></g></g><text class="w" transform="translate(223.41 171.87)"><tspan class="n" x="0" y="0">C</tspan><tspan class="o" x="15.96" y="0">o</tspan><tspan x="28.88" y="0">n </tspan><tspan class="q" x="47.62" y="0">t</tspan><tspan class="s" x="55.45" y="0">a</tspan><tspan class="h" x="69.47" y="0">g</tspan><tspan class="r" x="83.37" y="0">li</tspan><tspan class="ab" x="94.98" y="0">n</tspan><tspan x="107.91" y="0">e</tspan></text><line class="j" y1="132.05" x2="567.46" y2="132.05"/><text class="l" transform="translate(233.79 90.55)"><tspan class="g" x="0" y="0">c</tspan><tspan class="x" x="12.43" y="0">o</tspan><tspan class="i" x="25.96" y="0">n</tspan><tspan class="a`" x="39.77" y="0">e</tspan><tspan class="m" x="52.69" y="0">x</tspan><tspan class="t" x="65.6" y="0">i</tspan><tspan class="x" x="71.9" y="0">ó</tspan><tspan x="85.42" y="0">n </tspan><tspan class="e" x="105.29" y="0">c</tspan><tspan class="y" x="117.85" y="0">r</tspan><tspan class="aa" x="128" y="0">e</tspan><tspan class="u" x="141.43" y="0">a</tspan><tspan class="p" x="156.28" y="0">t</tspan><tspan class="v" x="164.95" y="0">i</tspan><tspan class="d" x="171.4" y="0">v</tspan><tspan x="183.61" y="0">a</tspan></text></g></g></svg>